Coordinates
version=1
nRows=12
nColumns=24
inDegrees=yes

Units are S.I. units (second, meters, Newtons, ...)
Angles are in degrees.

endheader
time	pelvis_tilt	pelvis_list	pelvis_rotation	pelvis_tx	pelvis_ty	pelvis_tz	hip_flexion_r	hip_adduction_r	hip_rotation_r	knee_angle_r	ankle_angle_r	subtalar_angle_r	mtp_angle_r	hip_flexion_l	hip_adduction_l	hip_rotation_l	knee_angle_l	ankle_angle_l	subtalar_angle_l	mtp_angle_l	lumbar_extension	lumbar_bending	lumbar_rotation
      2.66000000	     -4.21912672	     -0.88914759	     -0.90517859	      0.07243836	      0.96471562	      0.06089688	      9.31554398	      0.65244330	     -6.88062099	    -12.67868548	      7.52561101	      0.00000000	      0.00000000	     11.48317736	     -7.81320059	     -1.97737475	    -57.56199288	     -5.27293846	      0.00000000	      0.00000000	     -0.37431777	     -0.06087619	     -1.67942219
      2.67000000	     -4.12333326	     -0.71350607	     -0.95061588	      0.07192021	      0.96539169	      0.06203257	      8.74353955	      0.53299612	     -6.93075764	    -12.66982027	      7.66347413	      0.00000000	      0.00000000	     12.36538920	     -7.61592032	     -1.83735183	    -57.93379094	     -4.84662370	      0.00000000	      0.00000000	     -0.44969846	     -0.26643616	     -1.28761925
      2.68000000	     -4.23826681	     -0.39006946	     -0.85457953	      0.07138860	      0.96580215	      0.06293670	      8.36455404	      0.23506971	     -7.03806642	    -12.61286334	      7.96558347	      0.00000000	      0.00000000	     13.38733868	     -7.17875744	     -1.54613332	    -58.00971724	     -3.44643616	      0.00000000	      0.00000000	     -0.27750111	     -0.65205786	     -1.10343226
      2.69000000	     -4.20989277	     -0.20562805	     -0.89717863	      0.07059555	      0.96637999	      0.06397451	      7.83769548	      0.10625167	     -7.06362049	    -12.50801573	      8.10540661	      0.00000000	      0.00000000	     14.31730604	     -6.96599853	     -1.45189929	    -57.98366276	     -2.99328003	      0.00000000	      0.00000000	     -0.33071749	     -0.88120876	     -0.72879954
      2.70000000	     -4.42493893	      0.21484552	     -0.87896793	      0.06989271	      0.96664710	      0.06489880	      7.58468471	     -0.28728629	     -7.15306349	    -12.44299547	      8.29441954	      0.00000000	      0.00000000	     15.35501201	     -6.45831115	     -1.33971188	    -57.57637318	     -1.74696048	      0.00000000	      0.00000000	     -0.08318312	     -1.39171106	     -0.49108827
      2.71000000	     -4.54132382	      0.48126908	     -0.89340234	      0.06914640	      0.96701688	      0.06586204	      7.13184046	     -0.49894075	     -7.16943462	    -12.17347555	      8.46983519	      0.00000000	      0.00000000	     16.29383752	     -6.18066948	     -1.34197048	    -57.00626529	     -0.99803699	      0.00000000	      0.00000000	      0.01932552	     -1.73352774	     -0.18533200
      2.72000000	     -4.65767874	      0.70318998	     -0.92546514	      0.06837341	      0.96735923	      0.06674988	      6.70611492	     -0.67080430	     -7.24498569	    -11.96184120	      8.60460078	      0.00000000	      0.00000000	     17.16983695	     -5.94549438	     -1.33191098	    -56.17038965	     -0.28995705	      0.00000000	      0.00000000	      0.10856020	     -2.02333192	      0.15036272
      2.73000000	     -4.86867035	      1.20936469	     -0.96127578	      0.06731427	      0.96746358	      0.06747359	      6.50477701	     -1.17522041	     -7.27058972	    -11.94656862	      8.70593404	      0.00000000	      0.00000000	     18.13423441	     -5.41226601	     -1.45121922	    -55.20694213	      0.68626247	      0.00000000	      0.00000000	      0.25557166	     -2.63909432	      0.45303868
      2.74000000	     -5.03499541	      1.48165177	     -0.96374777	      0.06642070	      0.96756342	      0.06820197	      6.10669856	     -1.40781986	     -7.30040824	    -11.66635978	      8.84408858	      0.00000000	      0.00000000	     19.00335521	     -5.16451886	     -1.56403676	    -54.00904766	      1.43761613	      0.00000000	      0.00000000	      0.35246807	     -2.99947426	      0.73928360
      2.75000000	     -5.20836245	      1.76342960	     -0.95693960	      0.06547119	      0.96760619	      0.06880184	      5.72340289	     -1.65871110	     -7.34706299	    -11.37951685	      8.98140913	      0.00000000	      0.00000000	     19.82026670	     -4.91730900	     -1.71249041	    -52.58430850	      2.15523117	      0.00000000	      0.00000000	      0.43835907	     -3.36756750	      1.01334662
      2.76000000	     -5.34431229	      1.84394589	     -0.89966846	      0.06441897	      0.96760160	      0.06937671	      5.34560288	     -1.69414157	     -7.40797333	    -11.21798855	      9.14003631	      0.00000000	      0.00000000	     20.58285796	     -4.89802955	     -1.81629951	    -50.97173044	      2.60200118	      0.00000000	      0.00000000	      0.44186640	     -3.52115915	      1.21556715
      2.77000000	     -5.51550674	      1.92783385	     -0.81671316	      0.06339505	      0.96746050	      0.06982333	      4.98022137	     -1.73786539	     -7.45433844	    -11.00505200	      9.30377695	      0.00000000	      0.00000000	     21.31102407	     -4.88542824	     -1.95708360	    -49.14425474	      3.06800134	      0.00000000	      0.00000000	      0.47900089	     -3.67786321	      1.38313040
